<mxfile host="app.diagrams.net" agent="Mozilla/5.0 (Windows NT 10.0; Win64; x64) AppleWebKit/537.36 (KHTML, like Gecko) Chrome/130.0.0.0 Safari/537.36" version="24.8.4">
  <diagram id="C5RBs43oDa-KdzZeNtuy" name="Page-1">
    <mxGraphModel dx="1050" dy="522" grid="1" gridSize="10" guides="1" tooltips="1" connect="1" arrows="1" fold="1" page="1" pageScale="1" pageWidth="827" pageHeight="1169" math="0" shadow="0">
      <root>
        <mxCell id="WIyWlLk6GJQsqaUBKTNV-0" />
        <mxCell id="WIyWlLk6GJQsqaUBKTNV-1" parent="WIyWlLk6GJQsqaUBKTNV-0" />
        <mxCell id="vQI0C9RO543Nr7URtB8L-1" value="" style="rounded=0;whiteSpace=wrap;html=1;" vertex="1" parent="WIyWlLk6GJQsqaUBKTNV-1">
          <mxGeometry x="260" y="100" width="520" height="360" as="geometry" />
        </mxCell>
        <mxCell id="vQI0C9RO543Nr7URtB8L-11" style="edgeStyle=orthogonalEdgeStyle;rounded=0;orthogonalLoop=1;jettySize=auto;html=1;" edge="1" parent="WIyWlLk6GJQsqaUBKTNV-1" source="vQI0C9RO543Nr7URtB8L-0" target="vQI0C9RO543Nr7URtB8L-2">
          <mxGeometry relative="1" as="geometry" />
        </mxCell>
        <mxCell id="vQI0C9RO543Nr7URtB8L-13" style="edgeStyle=orthogonalEdgeStyle;rounded=0;orthogonalLoop=1;jettySize=auto;html=1;entryX=0;entryY=0.5;entryDx=0;entryDy=0;" edge="1" parent="WIyWlLk6GJQsqaUBKTNV-1" source="vQI0C9RO543Nr7URtB8L-0" target="vQI0C9RO543Nr7URtB8L-9">
          <mxGeometry relative="1" as="geometry" />
        </mxCell>
        <mxCell id="vQI0C9RO543Nr7URtB8L-16" style="edgeStyle=orthogonalEdgeStyle;rounded=0;orthogonalLoop=1;jettySize=auto;html=1;entryX=0;entryY=0.5;entryDx=0;entryDy=0;" edge="1" parent="WIyWlLk6GJQsqaUBKTNV-1" source="vQI0C9RO543Nr7URtB8L-0" target="vQI0C9RO543Nr7URtB8L-7">
          <mxGeometry relative="1" as="geometry" />
        </mxCell>
        <mxCell id="vQI0C9RO543Nr7URtB8L-0" value="Research &lt;br&gt;Engineer" style="shape=umlActor;verticalLabelPosition=bottom;verticalAlign=top;html=1;outlineConnect=0;" vertex="1" parent="WIyWlLk6GJQsqaUBKTNV-1">
          <mxGeometry x="80" y="130" width="30" height="60" as="geometry" />
        </mxCell>
        <mxCell id="vQI0C9RO543Nr7URtB8L-14" style="edgeStyle=orthogonalEdgeStyle;rounded=0;orthogonalLoop=1;jettySize=auto;html=1;" edge="1" parent="WIyWlLk6GJQsqaUBKTNV-1" source="vQI0C9RO543Nr7URtB8L-2" target="vQI0C9RO543Nr7URtB8L-6">
          <mxGeometry relative="1" as="geometry" />
        </mxCell>
        <mxCell id="vQI0C9RO543Nr7URtB8L-2" value="Design data retrieval&lt;br&gt;method/integrate market data source" style="rounded=1;whiteSpace=wrap;html=1;" vertex="1" parent="WIyWlLk6GJQsqaUBKTNV-1">
          <mxGeometry x="300" y="130" width="120" height="60" as="geometry" />
        </mxCell>
        <mxCell id="vQI0C9RO543Nr7URtB8L-6" value="Design management of temp/persistent data management and logging/monitoring scope and protocols" style="rounded=1;whiteSpace=wrap;html=1;" vertex="1" parent="WIyWlLk6GJQsqaUBKTNV-1">
          <mxGeometry x="590" y="130" width="170" height="140" as="geometry" />
        </mxCell>
        <mxCell id="vQI0C9RO543Nr7URtB8L-18" style="edgeStyle=orthogonalEdgeStyle;rounded=0;orthogonalLoop=1;jettySize=auto;html=1;" edge="1" parent="WIyWlLk6GJQsqaUBKTNV-1" source="vQI0C9RO543Nr7URtB8L-7" target="vQI0C9RO543Nr7URtB8L-17">
          <mxGeometry relative="1" as="geometry" />
        </mxCell>
        <mxCell id="vQI0C9RO543Nr7URtB8L-7" value="Design model(s)&amp;nbsp;&lt;br&gt;for decision-making engine (arbitrage or fundamental value)&amp;nbsp;" style="rounded=1;whiteSpace=wrap;html=1;" vertex="1" parent="WIyWlLk6GJQsqaUBKTNV-1">
          <mxGeometry x="300" y="300" width="120" height="100" as="geometry" />
        </mxCell>
        <mxCell id="vQI0C9RO543Nr7URtB8L-8" value="Integrate trade execution workflow/API" style="rounded=1;whiteSpace=wrap;html=1;" vertex="1" parent="WIyWlLk6GJQsqaUBKTNV-1">
          <mxGeometry x="630" y="295" width="90" height="110" as="geometry" />
        </mxCell>
        <mxCell id="vQI0C9RO543Nr7URtB8L-15" style="edgeStyle=orthogonalEdgeStyle;rounded=0;orthogonalLoop=1;jettySize=auto;html=1;entryX=0;entryY=0.5;entryDx=0;entryDy=0;" edge="1" parent="WIyWlLk6GJQsqaUBKTNV-1" source="vQI0C9RO543Nr7URtB8L-9" target="vQI0C9RO543Nr7URtB8L-6">
          <mxGeometry relative="1" as="geometry" />
        </mxCell>
        <mxCell id="vQI0C9RO543Nr7URtB8L-9" value="Establish protocols&lt;br&gt;for caching and&lt;br&gt;interservice comms" style="rounded=1;whiteSpace=wrap;html=1;" vertex="1" parent="WIyWlLk6GJQsqaUBKTNV-1">
          <mxGeometry x="300" y="210" width="120" height="60" as="geometry" />
        </mxCell>
        <mxCell id="vQI0C9RO543Nr7URtB8L-20" value="" style="edgeStyle=orthogonalEdgeStyle;rounded=0;orthogonalLoop=1;jettySize=auto;html=1;" edge="1" parent="WIyWlLk6GJQsqaUBKTNV-1" source="vQI0C9RO543Nr7URtB8L-17" target="vQI0C9RO543Nr7URtB8L-8">
          <mxGeometry relative="1" as="geometry" />
        </mxCell>
        <mxCell id="vQI0C9RO543Nr7URtB8L-22" style="edgeStyle=orthogonalEdgeStyle;rounded=0;orthogonalLoop=1;jettySize=auto;html=1;entryX=0;entryY=0.5;entryDx=0;entryDy=0;" edge="1" parent="WIyWlLk6GJQsqaUBKTNV-1" source="vQI0C9RO543Nr7URtB8L-17" target="vQI0C9RO543Nr7URtB8L-6">
          <mxGeometry relative="1" as="geometry" />
        </mxCell>
        <mxCell id="vQI0C9RO543Nr7URtB8L-17" value="Message layer integration" style="rounded=1;whiteSpace=wrap;html=1;" vertex="1" parent="WIyWlLk6GJQsqaUBKTNV-1">
          <mxGeometry x="470" y="295" width="70" height="110" as="geometry" />
        </mxCell>
        <mxCell id="vQI0C9RO543Nr7URtB8L-25" value="" style="endArrow=none;dashed=1;html=1;dashPattern=1 3;strokeWidth=2;rounded=0;" edge="1" parent="WIyWlLk6GJQsqaUBKTNV-1">
          <mxGeometry width="50" height="50" relative="1" as="geometry">
            <mxPoint x="360" y="540" as="sourcePoint" />
            <mxPoint x="359.5" y="405" as="targetPoint" />
          </mxGeometry>
        </mxCell>
        <mxCell id="vQI0C9RO543Nr7URtB8L-26" value="" style="endArrow=none;dashed=1;html=1;dashPattern=1 3;strokeWidth=2;rounded=0;" edge="1" parent="WIyWlLk6GJQsqaUBKTNV-1">
          <mxGeometry width="50" height="50" relative="1" as="geometry">
            <mxPoint x="80" y="540" as="sourcePoint" />
            <mxPoint x="360" y="540" as="targetPoint" />
          </mxGeometry>
        </mxCell>
        <mxCell id="vQI0C9RO543Nr7URtB8L-28" value="" style="endArrow=none;dashed=1;html=1;dashPattern=1 3;strokeWidth=2;rounded=0;" edge="1" parent="WIyWlLk6GJQsqaUBKTNV-1">
          <mxGeometry width="50" height="50" relative="1" as="geometry">
            <mxPoint x="80.5" y="535" as="sourcePoint" />
            <mxPoint x="80" y="200" as="targetPoint" />
          </mxGeometry>
        </mxCell>
        <mxCell id="vQI0C9RO543Nr7URtB8L-29" value="Temporal research&lt;br&gt;dependence" style="edgeLabel;html=1;align=center;verticalAlign=middle;resizable=0;points=[];" vertex="1" connectable="0" parent="vQI0C9RO543Nr7URtB8L-28">
          <mxGeometry x="0.077" y="2" relative="1" as="geometry">
            <mxPoint as="offset" />
          </mxGeometry>
        </mxCell>
      </root>
    </mxGraphModel>
  </diagram>
</mxfile>
